<svg width="31" height="23" viewBox="0 0 31 23" fill="none" xmlns="http://www.w3.org/2000/svg">
<path d="M18.8164 0C25.0055 0.000205222 30.04 5.15894 30.04 11.5C30.04 17.8409 25.0055 22.9998 18.8164 23C17.5204 23 16.2573 22.7753 15.0518 22.335C13.8764 22.764 12.6122 23 11.2949 23C5.10565 23 0.0703279 17.8412 0.0703125 11.5C0.0703125 5.15896 5.10564 0 11.2949 0C12.6121 1.85635e-05 13.8765 0.235066 15.0518 0.664062C16.2572 0.223768 17.5206 0 18.8164 0ZM11.2949 3.83691C7.17043 3.83691 3.81445 7.27443 3.81445 11.5C3.81447 15.7257 7.17044 19.1631 11.2949 19.1631C15.4192 19.163 18.7744 15.7257 18.7744 11.5C18.7744 7.27448 15.4192 3.837 11.2949 3.83691ZM19.7012 3.8916C21.4528 5.92075 22.5195 8.58455 22.5195 11.5C22.5195 14.4152 21.4525 17.0784 19.7012 19.1074C23.4098 18.6573 26.2959 15.4187 26.2959 11.5C26.2959 7.58114 23.4098 4.34166 19.7012 3.8916Z" fill="#142831"/>
</svg>
