<svg width="364" height="119" viewBox="0 0 364 119" fill="none" xmlns="http://www.w3.org/2000/svg">
<path d="M92.5095 0H27.7226C12.4118 0 0 12.2838 0 27.4367V91.5556C0 106.709 12.4118 118.992 27.7226 118.992H92.5095C107.82 118.992 120.232 106.709 120.232 91.5556V27.4367C120.232 12.2838 107.82 0 92.5095 0Z" fill="url(#paint0_radial_6444_1152)"/>
<path d="M44.7655 69.3041C49.0306 69.3041 52.4881 65.8822 52.4881 61.6612C52.4881 57.4401 49.0306 54.0182 44.7655 54.0182C40.5005 54.0182 37.043 57.4401 37.043 61.6612C37.043 65.8822 40.5005 69.3041 44.7655 69.3041Z" fill="#315A62"/>
<path d="M60.244 69.3041C64.5091 69.3041 67.9666 65.8822 67.9666 61.6612C67.9666 57.4401 64.5091 54.0182 60.244 54.0182C55.979 54.0182 52.5215 57.4401 52.5215 61.6612C52.5215 65.8822 55.979 69.3041 60.244 69.3041Z" fill="#315A62"/>
<path d="M75.7196 69.3041C79.9847 69.3041 83.4422 65.8822 83.4422 61.6612C83.4422 57.4401 79.9847 54.0182 75.7196 54.0182C71.4546 54.0182 67.9971 57.4401 67.9971 61.6612C67.9971 65.8822 71.4546 69.3041 75.7196 69.3041Z" fill="#315A62"/>
<path d="M91.1913 69.3041C95.4563 69.3041 98.9138 65.8822 98.9138 61.6612C98.9138 57.4401 95.4563 54.0182 91.1913 54.0182C86.9263 54.0182 83.4688 57.4401 83.4688 61.6612C83.4688 65.8822 86.9263 69.3041 91.1913 69.3041Z" fill="#315A62"/>
<path d="M21.8261 64.9828C26.0911 64.9828 29.5486 61.5609 29.5486 57.3398C29.5486 53.1188 26.0911 49.6969 21.8261 49.6969C17.561 49.6969 14.1035 53.1188 14.1035 57.3398C14.1035 61.5609 17.561 64.9828 21.8261 64.9828Z" fill="#315A62"/>
<path d="M167.987 46.8728L168.809 52.6601C172.282 46.466 176.935 45.5526 181.505 45.5526C186.076 45.5526 190.639 47.5866 193.104 50.3268L188.078 61.0878C185.793 58.954 183.694 57.8411 180.042 57.8411C174.194 57.8411 168.809 61.295 168.809 70.5363V96.94H157.666V46.8805H167.987V46.8728Z" fill="#FDF5F6"/>
<path d="M233.022 46.8727H243.71V96.9323H233.209L232.663 89.6175C230.109 95.5046 223.074 98.3522 218.048 98.452C204.709 98.5518 194.851 89.4179 194.851 71.8487C194.851 54.2795 205.172 45.5448 218.324 45.6523C224.351 45.6523 230.109 48.7992 232.663 53.7729L233.029 46.865L233.022 46.8727ZM205.98 71.8487C205.98 81.397 211.917 87.0769 219.318 87.0769C236.854 87.0769 236.854 56.7127 219.318 56.7127C211.917 56.7127 205.98 62.3004 205.98 71.8411V71.8487Z" fill="#FDF5F6"/>
<path d="M264.254 46.6664H253.111V96.9332H264.254V46.6664Z" fill="#FDF5F6"/>
<path d="M303.71 60.1748C300.514 56.8206 296.862 55.7077 292.567 55.7077C287.272 55.7077 284.345 57.5345 284.345 60.6814C284.345 63.8284 286.996 65.7626 292.747 66.1617C301.239 66.7681 312.023 68.9019 312.023 82.2035C312.023 91.038 305.54 98.6521 292.657 98.6521C285.532 98.6521 278.407 97.3319 271.835 89.7178L277.317 80.8833C280.513 84.8439 287.818 87.7913 292.844 87.891C297.048 87.9908 300.969 85.5577 300.969 81.8965C300.969 78.4425 298.415 77.0225 292.022 76.6157C283.53 75.9019 273.388 72.4556 273.388 61.0805C273.388 49.7055 284.165 45.4456 292.388 45.4456C299.423 45.4456 304.718 46.9653 309.924 52.0465L303.71 60.1671V60.1748Z" fill="#FDF5F6"/>
<path d="M328.64 76.3168C329.372 82.5109 334.211 86.978 342.068 86.978C346.176 86.978 351.568 85.251 354.122 82.3037L361.247 90.125C356.497 95.6053 348.737 98.2456 341.881 98.2456C326.354 98.2456 317.131 87.5844 317.131 71.5426C317.131 55.5008 326.451 45.3461 341.06 45.3461C355.669 45.3461 365.541 55.7004 363.801 76.3168H328.633H328.64ZM353.121 66.0623C352.389 59.5612 347.826 56.3144 341.433 56.3144C335.406 56.3144 330.469 59.5612 328.826 66.0623H353.121Z" fill="#FDF5F6"/>
<defs>
<radialGradient id="paint0_radial_6444_1152" cx="0" cy="0" r="1" gradientUnits="userSpaceOnUse" gradientTransform="translate(120.02 -137.72) scale(254.349 251.726)">
<stop stop-color="#818080"/>
<stop offset="1" stop-color="#FDF5F6"/>
</radialGradient>
</defs>
</svg>
