<svg width="31" height="23" viewBox="0 0 31 23" fill="none" xmlns="http://www.w3.org/2000/svg">
<path d="M11.5993 23C5.70985 23 0.650198 18.397 0.0569506 12.2527C-0.324147 8.30504 1.22416 4.43346 4.19858 1.89621C5.01801 1.19727 6.23398 1.31297 6.9144 2.15471C7.59498 2.99644 7.48219 4.2455 6.66275 4.94443C4.67549 6.63964 3.64097 9.22554 3.89539 11.8615C4.29146 15.9639 7.67012 19.0371 11.6022 19.0376C11.8573 19.0376 12.1138 19.0246 12.3729 18.9983C16.6256 18.565 19.7423 14.6586 19.3204 10.2901C19.2154 9.20145 19.9895 8.23118 21.0494 8.12325C22.1094 8.01485 23.0538 8.8103 23.1589 9.89912C23.7906 16.4417 19.1228 22.2923 12.7535 22.9412C12.366 22.9807 11.9808 23 11.5993 23Z" fill="#142831"/>
<path d="M25.481 21.6364C24.9194 21.6364 24.3627 21.3856 23.9816 20.9027C23.3109 20.0527 23.4379 18.8051 24.2653 18.1161C26.3009 16.4213 27.3621 13.813 27.104 11.139C26.8997 9.02283 25.9053 7.1151 24.304 5.76715C22.703 4.4192 20.6865 3.79237 18.6265 4.00237C14.3737 4.43552 11.2571 8.34196 11.6789 12.7104C11.784 13.7992 11.0099 14.7695 9.94992 14.8774C8.88994 14.9855 7.94553 14.1904 7.84046 13.1016C7.20879 6.55896 11.8765 0.708326 18.2458 0.0594711C21.3312 -0.254971 24.3511 0.683762 26.7491 2.7026C29.1472 4.72143 30.6364 7.57868 30.9424 10.748C31.3289 14.7524 29.7409 18.6575 26.6942 21.1942C26.337 21.4917 25.9076 21.6364 25.481 21.6364Z" fill="#142831"/>
</svg>
